<?xml version="1.0" encoding="utf-8"?>
<!-- Generator: Adobe Illustrator 19.1.0, SVG Export Plug-In . SVG Version: 6.00 Build 0)  -->
<svg version="1.1" id="レイヤー_1" xmlns="http://www.w3.org/2000/svg" xmlns:xlink="http://www.w3.org/1999/xlink" x="0px"
	 y="0px" viewBox="-1342 2803.9 292 62.4" style="enable-background:new -1342 2803.9 292 62.4;" xml:space="preserve">
<style type="text/css">
	.st0{fill:#1C4C97;}
	.st1{font-family:'Osaka';}
	.st2{font-size:16px;}
	.st3{font-size:14px;}
	.st4{fill:#194FA2;}
</style>
<text transform="matrix(1 0 0 1 -1138.6615 2860.8218)" class="st0 st1 st2">測量・設計</text>
<text transform="matrix(1 0 0 1 -1338.5981 2818.2495)" class="st0 st1 st3">測量、設計に特化した転職スカウトサービス</text>
<g>
	<g>
		<path class="st4" d="M-1335.4,2845.5c-1.2,8.4,4.7,16.2,13.2,17.4c8.4,1.2,16.2-4.7,17.4-13.2c1.2-8.4-4.7-16.2-13.2-17.4
			C-1326.4,2831.1-1334.2,2837-1335.4,2845.5z M-1316.6,2836l-0.3,1.1c-0.5-0.2-1.1-0.3-1.7-0.4c-0.6-0.1-1.2-0.1-1.7-0.1l0-1.2
			c0.6,0,1.3,0,1.9,0.1C-1317.8,2835.7-1317.2,2835.8-1316.6,2836C-1316.6,2836-1316.6,2836-1316.6,2836z M-1310,2840.9l-1,0.7
			c-0.6-1-1.4-1.8-2.3-2.5l0.7-0.9C-1311.6,2838.9-1310.7,2839.9-1310,2840.9C-1310,2840.9-1310,2840.9-1310,2840.9z
			 M-1308.3,2844.8l-1.2,0.3c-0.3-1.1-0.7-2.2-1.3-3.2l1-0.6C-1309.1,2842.3-1308.6,2843.5-1308.3,2844.8
			C-1308.3,2844.8-1308.3,2844.8-1308.3,2844.8z M-1308.1,2849l-1.2-0.1c0.1-1.2,0.1-2.3-0.1-3.4l1.2-0.2
			C-1308,2846.4-1307.9,2847.6-1308.1,2849C-1308.1,2848.9-1308.1,2849-1308.1,2849z M-1324.8,2836.4l0.5,1.1
			c-1.1,0.5-2.1,1.1-2.9,1.8l-0.8-0.9C-1327.1,2837.6-1326,2837-1324.8,2836.4C-1324.9,2836.5-1324.8,2836.5-1324.8,2836.4z
			 M-1328.3,2838.7l0.8,0.9l0,0c-0.8,0.8-1.6,1.7-2.1,2.7l-1-0.6C-1330.1,2840.6-1329.3,2839.6-1328.3,2838.7
			C-1328.4,2838.8-1328.4,2838.7-1328.3,2838.7z M-1330.9,2842.1l1.1,0.5c-0.5,1.1-0.9,2.2-1.1,3.5l-1.2-0.2
			C-1331.9,2844.6-1331.5,2843.3-1330.9,2842.1C-1330.9,2842.1-1330.9,2842.1-1330.9,2842.1z M-1326.8,2856.2l-0.7,0.9
			c-1-0.8-1.9-1.7-2.6-2.8l1-0.7C-1328.5,2854.6-1327.7,2855.5-1326.8,2856.2z M-1329.4,2853.4l-1,0.6c-0.7-1.1-1.2-2.3-1.5-3.5
			l1.2-0.3C-1330.4,2851.3-1330,2852.4-1329.4,2853.4z M-1330.8,2849.9l-1.2,0.3c-0.3-1.2-0.3-2.5-0.2-3.8l1.2,0.1
			C-1331.1,2847.6-1331,2848.8-1330.8,2849.9z M-1327.3,2857.3l0.7-1c0.9,0.7,1.9,1.2,3.1,1.6l-0.4,1.1
			C-1325.1,2858.7-1326.2,2858.1-1327.3,2857.3z M-1323.5,2859.2l0.3-1.1c0.5,0.2,1,0.3,1.6,0.3c0.6,0.1,1.2,0.1,1.8,0.1l0,1.2
			c-0.7,0-1.4,0-2-0.1C-1322.4,2859.5-1322.9,2859.4-1323.5,2859.2z M-1315.3,2858.7l-0.5-1.1c1.1-0.5,2-1.1,2.9-1.9l0.8,0.9
			C-1313,2857.5-1314.1,2858.1-1315.3,2858.7C-1315.2,2858.7-1315.2,2858.7-1315.3,2858.7z M-1311.8,2856.4l-0.8-0.9
			c0.8-0.8,1.5-1.7,2.1-2.7l1.1,0.6C-1310,2854.5-1310.8,2855.5-1311.8,2856.4C-1311.8,2856.3-1311.8,2856.3-1311.8,2856.4z
			 M-1309.3,2853l-1.1-0.5c0.5-1,0.9-2.1,1-3.3l1.2,0.2C-1308.3,2850.6-1308.7,2851.8-1309.3,2853
			C-1309.3,2853-1309.3,2853-1309.3,2853z M-1311.6,2852.2c-0.5,0.9-1.1,1.7-1.8,2.4c-0.1,0.1-0.1,0.1-0.2,0.2
			c-0.8,0.7-1.6,1.2-2.6,1.6c-0.1,0-0.2,0.1-0.3,0.1c-0.9,0.4-1.9,0.6-3,0.7c-0.1,0-0.2,0-0.3,0c-0.5,0-1.1,0-1.6-0.1
			c-0.5-0.1-0.9-0.2-1.4-0.3c-0.1,0-0.2-0.1-0.3-0.1c-1-0.3-1.9-0.8-2.7-1.4c-0.1-0.1-0.2-0.1-0.2-0.2c-0.8-0.6-1.5-1.4-2.1-2.2
			c-0.1-0.1-0.1-0.2-0.2-0.3c-0.5-0.9-0.9-1.8-1.2-2.8c0-0.1,0-0.2-0.1-0.3c-0.2-1-0.3-2-0.2-3c0-0.1,0-0.2,0-0.3c0,0,0,0,0,0
			c0.2-1.1,0.5-2.1,1-3.1c0-0.1,0.1-0.2,0.1-0.3c0.4-0.7,0.9-1.3,1.4-1.9c0-0.2,0-0.3,0-0.5c0.1-0.7,0.6-1.3,1.3-1.6
			c0.5-0.2,0.9-0.1,1.4,0.1c0.2-0.1,0.4-0.2,0.6-0.3c0.1,0,0.2-0.1,0.3-0.1c0.9-0.4,1.9-0.6,3-0.6c0.1,0,0.2,0,0.3,0
			c0.5,0,1,0,1.5,0.1c0.5,0.1,1,0.2,1.5,0.3c0.1,0,0.2,0.1,0.3,0.1c1,0.3,1.9,0.8,2.7,1.4c0.1,0.1,0.2,0.1,0.2,0.2
			c0.8,0.6,1.5,1.4,2,2.2c0.1,0.1,0.1,0.2,0.2,0.3c0.5,0.9,0.9,1.8,1.2,2.8c0,0.1,0,0.2,0.1,0.3c0.2,1,0.3,2,0.1,3
			c0,0.1,0,0.1,0,0.2c0,0,0,0.1,0,0.1c-0.1,1-0.5,2-0.9,2.9C-1311.5,2852-1311.6,2852.1-1311.6,2852.2z M-1320.7,2835.5l0.1,1.2
			c-1.2,0.1-2.3,0.3-3.4,0.7l-0.4-1.1C-1323.3,2835.8-1322.1,2835.6-1320.7,2835.5C-1320.8,2835.5-1320.8,2835.5-1320.7,2835.5z
			 M-1319.3,2859.7l-0.1-1.2c1.2-0.1,2.3-0.3,3.4-0.8l0.4,1.1C-1316.8,2859.3-1318,2859.6-1319.3,2859.7
			C-1319.3,2859.7-1319.3,2859.7-1319.3,2859.7z M-1312.9,2837.9l-0.7,1c-0.9-0.7-1.9-1.2-3-1.6l0.4-1.1
			C-1315,2836.5-1313.9,2837.1-1312.9,2837.9C-1312.9,2837.9-1312.9,2837.9-1312.9,2837.9z"/>
		<path class="st4" d="M-1316.3,2847.9c0-0.3,0-0.6,0-0.9c-0.1-0.6-0.3-1.1-0.7-1.6c-0.6-0.8-1.4-1.3-2.3-1.4c0,0-0.1,0-0.1,0
			c-0.3,0-0.5,0-0.8,0c-0.3,0-0.5,0.1-0.7,0.1l-3.8-3.8c-0.4-0.4-1.1-0.1-1.1,0.4c0,0.1,0,0.3,0.1,0.4l2.6,4.7
			c-0.1,0.2-0.2,0.5-0.3,0.7c-0.1,0.3-0.2,0.6-0.2,1c0,0.8,0.2,1.6,0.7,2.4c0.3,0.4,0.7,0.8,1.1,1c0.3,0.2,0.6,0.3,0.9,0.4
			c0.3,0.1,0.5,0.1,0.8,0.1l0.7,1.3c0.4,0.6,1.2,0.8,1.8,0.4l2-1.5c0.3-0.2,0.4-0.5,0.5-0.8c0-0.4-0.1-0.7-0.3-1l-1-1
			c0.1-0.2,0.1-0.4,0.1-0.6C-1316.3,2848.1-1316.3,2848-1316.3,2847.9z M-1319,2848.9c-0.7,0.5-1.7,0.4-2.3-0.3
			c-0.3-0.4-0.4-0.8-0.3-1.2c0.1-0.4,0.3-0.8,0.6-1.1c0.3-0.3,0.8-0.4,1.2-0.3c0.4,0.1,0.8,0.3,1.1,0.6
			C-1318.1,2847.3-1318.3,2848.4-1319,2848.9z"/>
	</g>
	<g>
		<path class="st4" d="M-1281.7,2840.6h-13.4v-5.9h13.4V2840.6z M-1268.3,2841.5c0,3.7-0.5,6.9-1.5,9.5c-1.2,3.2-3.1,5.6-5.7,7.3
			c-3,1.9-7,2.9-11.8,2.9h-7.7v-6.6h8.5c4.5,0,7.6-1.3,9.4-3.8c1.5-2.1,2.2-5.2,2.2-9.5v-1.2h6.6V2841.5z M-1281.7,2848.5h-13.4
			v-5.9h13.4V2848.5z M-1272.2,2838.8h-3.2v-5.2h3.2V2838.8z M-1267.7,2838.8h-3.2v-5.2h3.2V2838.8z"/>
		<path class="st4" d="M-1244.2,2861h-20.6v-5.3h14.9v-2.3h-13.7v-5.3h13.7v-2.4h-14.9v-5.3h20.6V2861z"/>
		<path class="st4" d="M-1214.5,2844.6c0,5.8-1.9,10.1-5.6,12.9c-3.4,2.6-8.3,3.8-14.7,3.8h-5.2v-6.5h5.4c2.7,0,4.8-0.2,6.5-0.7
			c2.2-0.6,3.8-1.5,4.9-2.9c1.3-1.6,2-3.8,2-6.6v-3.2h-19.9v-6.6h19v5.1h7.6V2844.6z M-1217.7,2838.7h-3.2v-5.2h3.2V2838.7z
			 M-1213.2,2838.7h-3.2v-5.2h3.2V2838.7z"/>
		<path class="st4" d="M-1199.7,2834.1v4.6l-0.3,0.4h6v-0.7h-5v-3.9h5v-0.8h5.5v0.8h5.5v4.6h0.7v3.8h-0.7v4.6h-5.5v0.7h5.5v3.6h-5.5
			v0.6h6.2v3.5h-6.2v0.7h6.2v4.8h-17c-2.3,0-4.4-0.6-6.1-1.9c-1.3,1-2.9,1.7-4.8,2.2v-6.2c0.4-0.1,0.6-0.2,0.7-0.2
			c0.2,0,0.4-0.1,0.7-0.2c-0.4-0.9-0.7-1.8-1-2.8c-0.3-1-0.4-1.9-0.4-2.9h4.3c0,0.4,0,0.8,0.1,1.1c0.1,0.3,0.1,0.7,0.3,1.1
			c0.2-0.5,0.4-1,0.5-1.5c0.1-0.5,0.2-1.1,0.2-1.8h-4.5v-4.7l3.7-4.6h-4.5v-4.8H-1199.7z M-1203.3,2843.5h3.5v4.7
			c0,1.4-0.2,2.7-0.6,3.9c-0.4,1.3-1,2.5-1.7,3.7c1.2,0.5,2.6,0.8,4.3,0.8h3.8v-0.7h-6.3v-3.5h6.3v-0.6h-5v-3.6h5v-0.7h-5v-3.9h5
			v-0.7h-6.3v-3.5L-1203.3,2843.5z M-1189.3,2839.5h1.7v-1.1h-1.7V2839.5z M-1189.3,2843.7h1.7v-1.1h-1.7V2843.7z"/>
		<path class="st4" d="M-1166.8,2838.4v4.9h-12.1v-4.9H-1166.8z M-1167.2,2834.1v3.7h-11.2v-3.7H-1167.2z M-1167.2,2844v3.6h-11.2
			v-3.6H-1167.2z M-1167.2,2848.3v3.7h-11.2v-3.7H-1167.2z M-1167.2,2852.6v8.7h-11.2v-8.7H-1167.2z M-1173.6,2857.7h1.8v-1.3h-1.8
			V2857.7z M-1152.9,2834.1v6.1c0.1,0.1,0.2,0.2,0.2,0.2h0.7c0.3,0,0.7-0.1,1-0.3v5.5c-0.3,0.1-0.6,0.2-0.9,0.2
			c-0.3,0-0.6,0.1-1,0.1h-2.1c-1.1,0-1.9-0.3-2.5-1c-0.6-0.7-0.9-1.5-0.9-2.6v-3.3h-1.4c0,2.2-0.5,3.9-1.5,5.1c-1,1.2-2.7,2-4.9,2.4
			v-6.4c0.3-0.1,0.6-0.2,0.8-0.5c0.2-0.2,0.3-0.5,0.3-0.8v-4.7H-1152.9z M-1151.6,2846.6v4.7c-0.2,0.8-0.5,1.6-0.9,2.4
			c-0.4,0.8-0.9,1.6-1.5,2.3c0.9,0.1,1.9,0.2,3.1,0.2v5.4c-1.6,0-3-0.1-4.4-0.4c-1.3-0.3-2.6-0.7-3.8-1.3c-1.1,0.5-2.2,0.9-3.2,1.2
			c-1.3,0.3-2.5,0.5-3.8,0.5v-5.7l1.8-0.2c-0.3-0.4-0.6-1-1-1.5c-0.3-0.6-0.6-1.2-0.8-1.7h5.9c0.2,0.5,0.5,0.9,0.9,1.3
			c0.3-0.3,0.7-0.6,1-1c0.3-0.4,0.6-0.8,0.8-1.2h-8.6v-5H-1151.6z"/>
	</g>
</g>
</svg>
