<?xml version="1.0" encoding="utf-8"?>
<!-- Generator: Adobe Illustrator 19.1.0, SVG Export Plug-In . SVG Version: 6.00 Build 0)  -->
<svg version="1.1" id="レイヤー_1" xmlns="http://www.w3.org/2000/svg" xmlns:xlink="http://www.w3.org/1999/xlink" x="0px"
	 y="0px" viewBox="0 0 292 62.4" style="enable-background:new 0 0 292 62.4;" xml:space="preserve">
<style type="text/css">
	.st0{fill:#1C4C97;}
	.st1{font-family:'Osaka';}
	.st2{font-size:16px;}
	.st3{font-size:14px;}
</style>
<text transform="matrix(1 0 0 1 203.3385 56.9314)" class="st0 st1 st2">測量・設計</text>
<g>
	<g>
		<path class="st0" d="M50.7,28.1v1.6h3.6v4.6h-6.2v3.1h6.1v3.8l1.7-0.5v-4.1h-2.2c0.7-1.3,1.2-2.7,1.7-4.2c0.4-1.5,0.6-2.9,0.6-4.3
			h4.4l-0.1,1.4h11.2v4.4H59.4c-0.2,0.6-0.3,1.1-0.5,1.5c-0.2,0.4-0.4,0.8-0.6,1.2h1.6v3l1.7-0.5v-3.7h3.7V38l3.2-0.9h2.3v10.8
			c0,1.1-0.4,1.9-1.2,2.4c-0.7,0.4-1.5,0.6-2.5,0.6H66v-3.8h0.6c0.3,0,0.4-0.2,0.4-0.6v-4.9l-1.7,0.5v9.2h-3.7v-8.1l-1.7,0.5V52
			c0,0.3,0.1,0.6,0.2,0.8c0.2,0.2,0.4,0.3,0.8,0.3h6.2c1,0,1.8-0.1,2.4-0.2c0.6-0.1,1.2-0.4,1.9-0.8v4.2c-0.4,0.3-1,0.5-1.7,0.6
			C69.1,57,68.2,57,67.2,57h-7.4c-1.3,0-2.2-0.4-2.9-1.1c-0.7-0.7-1-1.6-1-2.7v-8.4l-1.7,0.5v7.7c0,1.2-0.4,2.2-1.1,3
			c-0.8,0.8-1.8,1.2-3,1.2h-2.9V53h1.9c0.6,0,1-0.3,1-0.9V41.8h-1.9v1.1c0,3.3-0.4,6.2-1.3,8.5c-1,2.6-2.6,4.6-4.7,6v-6.6
			c0.6-0.6,1-1.5,1.3-2.8c0.3-1.3,0.4-3,0.4-5.2v-8.4h-1.7v-4.6h3.7v-1.6H50.7z"/>
		<path class="st0" d="M102.6,28.9v5H91.4v17.9h12v4.9H74v-4.9h12V33.9H74.7v-5H102.6z"/>
		<path class="st0" d="M134.3,52.8l-8.9-4.3v-3.8c-0.8,0.6-1.7,1.2-2.7,1.9v10.3h-5.5v-7.4c-1.6,0.7-3.4,1.3-5.4,1.8
			c-2,0.5-4.1,1-6.3,1.3v-5.7c4.8-0.6,9.2-1.9,13.2-4.1c3.8-2.1,6.4-4.3,7.8-6.9h-20.2v-5.6h10.7v-2.2h5.5v2.2h10.7v3.5
			c-0.2,1.2-0.7,2.5-1.7,4c-1.1,1.8-2.6,3.6-4.5,5.3l7.2,3.5V52.8z"/>
		<path class="st0" d="M142.1,47.2h-4.8l-1.1-11.8h4.6L142.1,47.2z M159.2,40.9c0,5.2-1.1,9.1-3.4,11.7c-2.6,2.8-6.8,4.2-12.6,4.2
			h-6v-4.8h6c4.3,0,7.3-0.9,8.9-2.8c1.5-1.7,2.3-4.4,2.3-8.4V35h4.9V40.9z M149.8,47.2h-4.7L144,35.4h4.6L149.8,47.2z"/>
		<path class="st0" d="M188,46.8c-3.8,0-7.4-0.3-10.9-1c-3.5-0.6-6.4-1.5-8.6-2.6v13.7h-5.5V28.2h5.5v9.1c2.3,1.2,5.4,2.2,9.3,2.9
			c3.5,0.6,6.9,0.9,10.2,0.9V46.8z"/>
	</g>
	<g>
		<path class="st0" d="M3.5,40.7c-1.1,8.3,4.6,15.9,12.9,17c8.3,1.1,15.9-4.6,17-12.9c1.1-8.3-4.6-15.9-12.9-17
			C12.3,26.6,4.6,32.4,3.5,40.7z M21.9,31.4l-0.3,1.1c-0.5-0.2-1.1-0.3-1.6-0.4c-0.6-0.1-1.1-0.1-1.7-0.1l0-1.2c0.6,0,1.3,0,1.9,0.1
			C20.7,31.1,21.3,31.2,21.9,31.4C21.9,31.4,21.9,31.4,21.9,31.4z M28.4,36.2l-1,0.6c-0.6-0.9-1.4-1.8-2.3-2.5l0.7-0.9
			C26.8,34.3,27.7,35.2,28.4,36.2C28.3,36.2,28.3,36.2,28.4,36.2z M30,40l-1.1,0.3c-0.3-1.1-0.7-2.2-1.3-3.1l1-0.6
			C29.2,37.6,29.7,38.8,30,40C30,40,30,40,30,40z M30.2,44.1L29.1,44c0.1-1.2,0.1-2.3-0.1-3.4l1.1-0.2
			C30.3,41.6,30.4,42.8,30.2,44.1C30.2,44.1,30.2,44.1,30.2,44.1z M13.8,31.8l0.5,1.1c-1,0.4-2,1.1-2.9,1.8l-0.8-0.9
			C11.6,33,12.6,32.3,13.8,31.8C13.8,31.8,13.8,31.8,13.8,31.8z M10.4,34.1l0.8,0.9l0,0c-0.8,0.8-1.5,1.7-2.1,2.7l-1-0.6
			C8.7,35.9,9.4,34.9,10.4,34.1C10.4,34.1,10.4,34.1,10.4,34.1z M7.9,37.3l1,0.5c-0.5,1-0.9,2.2-1.1,3.4l-1.2-0.2
			C6.9,39.8,7.3,38.5,7.9,37.3C7.9,37.4,7.9,37.4,7.9,37.3z M11.9,51.2l-0.7,0.9c-1-0.8-1.8-1.7-2.5-2.7l1-0.7
			C10.2,49.6,11,50.5,11.9,51.2z M9.4,48.4l-1,0.6c-0.7-1.1-1.2-2.2-1.5-3.4l1.1-0.3C8.3,46.4,8.8,47.5,9.4,48.4z M8,45l-1.1,0.2
			c-0.3-1.2-0.3-2.5-0.2-3.7l1.2,0.1C7.7,42.8,7.8,43.9,8,45z M11.4,52.3l0.7-0.9c0.9,0.7,1.9,1.2,3,1.5L14.8,54
			C13.5,53.6,12.4,53,11.4,52.3z M15.1,54.1l0.3-1.1c0.5,0.1,1,0.3,1.5,0.3c0.6,0.1,1.2,0.1,1.8,0.1l0,1.2c-0.7,0-1.3,0-2-0.1
			C16.2,54.4,15.7,54.3,15.1,54.1z M23.2,53.6l-0.5-1.1c1-0.4,2-1.1,2.8-1.8l0.8,0.9C25.4,52.4,24.4,53.1,23.2,53.6
			C23.2,53.6,23.2,53.6,23.2,53.6z M26.6,51.3l-0.8-0.8c0.8-0.8,1.5-1.7,2.1-2.7l1,0.6C28.3,49.5,27.5,50.5,26.6,51.3
			C26.6,51.3,26.6,51.3,26.6,51.3z M29.1,48l-1-0.5c0.5-1,0.8-2.1,1-3.2l1.2,0.2C30,45.7,29.6,46.9,29.1,48C29.1,48,29.1,48,29.1,48
			z M26.8,47.2c-0.5,0.9-1.1,1.7-1.8,2.4c-0.1,0.1-0.1,0.1-0.2,0.2c-0.7,0.7-1.6,1.2-2.5,1.6c-0.1,0-0.2,0.1-0.3,0.1
			c-0.9,0.4-1.9,0.6-2.9,0.7c-0.1,0-0.2,0-0.3,0c-0.5,0-1.1,0-1.6-0.1c-0.5-0.1-0.9-0.2-1.4-0.3c-0.1,0-0.2-0.1-0.3-0.1
			c-1-0.3-1.9-0.8-2.6-1.4c-0.1-0.1-0.2-0.1-0.2-0.2c-0.8-0.6-1.5-1.4-2-2.2c-0.1-0.1-0.1-0.2-0.2-0.2C9.9,46.9,9.5,46,9.3,45
			c0-0.1,0-0.2-0.1-0.3c-0.2-1-0.3-1.9-0.1-3c0-0.1,0-0.2,0-0.3c0,0,0,0,0,0c0.1-1.1,0.5-2.1,1-3c0-0.1,0.1-0.2,0.1-0.3
			c0.4-0.7,0.8-1.3,1.4-1.9c0-0.2,0-0.3,0-0.5c0.1-0.7,0.6-1.3,1.3-1.5c0.4-0.1,0.9-0.1,1.3,0.1c0.2-0.1,0.4-0.2,0.6-0.3
			c0.1,0,0.2-0.1,0.3-0.1c0.9-0.4,1.9-0.6,2.9-0.6c0.1,0,0.2,0,0.3,0c0.5,0,1,0,1.5,0.1c0.5,0.1,1,0.2,1.4,0.3
			c0.1,0,0.2,0.1,0.3,0.1c1,0.3,1.8,0.8,2.6,1.4c0.1,0.1,0.2,0.1,0.2,0.2c0.8,0.6,1.5,1.4,2,2.2c0.1,0.1,0.1,0.2,0.2,0.2
			c0.5,0.8,0.9,1.8,1.1,2.7c0,0.1,0,0.2,0.1,0.3c0.2,1,0.2,2,0.1,3c0,0.1,0,0.1,0,0.2c0,0,0,0.1,0,0.1c-0.1,1-0.5,2-0.9,2.8
			C26.9,47,26.8,47.1,26.8,47.2z M17.8,30.9l0.1,1.2c-1.1,0.1-2.3,0.3-3.3,0.7l-0.4-1.1C15.3,31.2,16.5,31,17.8,30.9
			C17.8,30.9,17.8,30.9,17.8,30.9z M19.2,54.6l-0.1-1.2c1.1-0.1,2.3-0.3,3.3-0.8l0.4,1.1C21.7,54.2,20.5,54.5,19.2,54.6
			C19.2,54.6,19.2,54.6,19.2,54.6z M25.5,33.3l-0.7,0.9c-0.9-0.7-1.9-1.2-3-1.6l0.4-1.1C23.4,31.9,24.5,32.5,25.5,33.3
			C25.5,33.2,25.5,33.2,25.5,33.3z"/>
		<path class="st0" d="M22.2,43.1c0-0.3,0-0.6,0-0.9c-0.1-0.6-0.3-1.1-0.7-1.6c-0.6-0.7-1.4-1.2-2.3-1.4c0,0-0.1,0-0.1,0
			c-0.3,0-0.5,0-0.8,0c-0.2,0-0.5,0.1-0.7,0.1l-3.7-3.7c-0.4-0.4-1.1-0.1-1.1,0.4c0,0.1,0,0.3,0.1,0.4l2.6,4.6
			c-0.1,0.2-0.2,0.5-0.3,0.7C15,42,15,42.3,15,42.6c0,0.8,0.2,1.6,0.7,2.3c0.3,0.4,0.7,0.7,1.1,1c0.3,0.2,0.6,0.3,0.9,0.4
			c0.3,0.1,0.5,0.1,0.8,0.1l0.7,1.3c0.4,0.6,1.2,0.8,1.7,0.4l1.9-1.5c0.3-0.2,0.4-0.5,0.5-0.8c0-0.4-0.1-0.7-0.3-1l-1-1
			c0.1-0.2,0.1-0.4,0.1-0.5C22.2,43.2,22.2,43.1,22.2,43.1z M19.5,44c-0.7,0.5-1.7,0.4-2.2-0.3c-0.3-0.3-0.4-0.8-0.3-1.2
			c0.1-0.4,0.3-0.8,0.6-1c0.3-0.3,0.8-0.4,1.2-0.3c0.4,0.1,0.8,0.3,1,0.6C20.4,42.5,20.2,43.5,19.5,44z"/>
	</g>
</g>
<text transform="matrix(1 0 0 1 3.4018 14.3594)" class="st0 st1 st3">測量、設計に特化した転職スカウトサービス</text>
</svg>
