<?xml version="1.0" encoding="utf-8"?>
<!-- Generator: Adobe Illustrator 19.1.0, SVG Export Plug-In . SVG Version: 6.00 Build 0)  -->
<svg version="1.1" id="レイヤー_1" xmlns="http://www.w3.org/2000/svg" xmlns:xlink="http://www.w3.org/1999/xlink" x="0px"
	 y="0px" viewBox="-1275 2801.3 425.2 68" style="enable-background:new -1275 2801.3 425.2 68;" xml:space="preserve">
<style type="text/css">
	.st0{fill:#FFFFFF;}
</style>
<g>
	<g>
		<path class="st0" d="M-1260.4,2831.8c-2.5,18,10.1,34.6,28.1,37.1c18,2.5,34.6-10.1,37.1-28.1c2.5-18-10.1-34.6-28.1-37.1
			C-1241.2,2801.3-1257.9,2813.9-1260.4,2831.8z M-1220.3,2811.6l-0.7,2.4c-1.2-0.3-2.3-0.6-3.6-0.8c-1.2-0.2-2.5-0.2-3.7-0.2
			l-0.1-2.5c1.4,0,2.7,0,4.1,0.2C-1222.9,2811-1221.6,2811.2-1220.3,2811.6C-1220.3,2811.6-1220.3,2811.6-1220.3,2811.6z
			 M-1206.2,2822.2l-2.1,1.4c-1.3-2.1-3-3.9-5-5.4l1.6-2C-1209.5,2817.9-1207.7,2819.9-1206.2,2822.2
			C-1206.2,2822.2-1206.2,2822.2-1206.2,2822.2z M-1202.6,2830.4l-2.5,0.6c-0.6-2.4-1.5-4.7-2.8-6.8l2.2-1.3
			C-1204.3,2825.2-1203.3,2827.7-1202.6,2830.4C-1202.6,2830.3-1202.6,2830.4-1202.6,2830.4z M-1202.1,2839.3l-2.5-0.3
			c0.3-2.5,0.2-5-0.3-7.3l2.5-0.5C-1201.9,2833.8-1201.8,2836.5-1202.1,2839.3C-1202.1,2839.3-1202.1,2839.3-1202.1,2839.3z
			 M-1237.9,2812.6l1,2.3c-2.3,1-4.4,2.3-6.2,3.9l-1.7-1.9C-1242.7,2815.1-1240.4,2813.7-1237.9,2812.6
			C-1237.9,2812.6-1237.9,2812.6-1237.9,2812.6z M-1245.4,2817.5l1.7,1.9l0,0c-1.8,1.7-3.3,3.6-4.5,5.8l-2.2-1.2
			C-1249.1,2821.5-1247.4,2819.4-1245.4,2817.5C-1245.4,2817.5-1245.4,2817.5-1245.4,2817.5z M-1250.8,2824.6l2.3,1.2
			c-1.2,2.3-2,4.7-2.3,7.4l-2.5-0.4c0.4-2.9,1.3-5.6,2.5-8.1C-1250.8,2824.7-1250.8,2824.6-1250.8,2824.6z M-1242.1,2854.7l-1.6,2
			c-2.2-1.7-4-3.7-5.5-6l2.1-1.4C-1245.8,2851.3-1244.1,2853.2-1242.1,2854.7z M-1247.5,2848.7l-2.1,1.3c-1.4-2.3-2.5-4.8-3.2-7.5
			l2.5-0.6C-1249.8,2844.3-1248.8,2846.6-1247.5,2848.7z M-1250.6,2841.2l-2.5,0.5c-0.6-2.6-0.7-5.3-0.4-8.1l2.5,0.3
			C-1251.2,2836.4-1251,2838.9-1250.6,2841.2z M-1243,2857.2l1.5-2c2,1.4,4.1,2.6,6.5,3.3l-0.8,2.4
			C-1238.5,2860.1-1240.9,2858.8-1243,2857.2z M-1235,2861.2l0.7-2.4c1.1,0.3,2.2,0.6,3.3,0.7c1.3,0.2,2.6,0.2,3.9,0.2l0.1,2.5
			c-1.4,0.1-2.9,0-4.4-0.2C-1232.6,2861.8-1233.8,2861.5-1235,2861.2z M-1217.4,2860l-1-2.3c2.3-1,4.3-2.3,6.2-4l1.7,1.9
			c-2,1.8-4.3,3.3-6.8,4.4C-1217.4,2860-1217.4,2860-1217.4,2860z M-1210,2855.1l-1.7-1.8c1.8-1.7,3.3-3.6,4.5-5.8l2.2,1.2
			C-1206.3,2851-1208,2853.2-1210,2855.1C-1210,2855-1210,2855.1-1210,2855.1z M-1204.7,2847.9l-2.3-1.1c1.1-2.1,1.8-4.5,2.2-7
			l2.5,0.4C-1202.6,2842.9-1203.4,2845.5-1204.7,2847.9C-1204.6,2847.8-1204.6,2847.9-1204.7,2847.9z M-1209.7,2846.1
			c-1,1.9-2.4,3.7-3.9,5.1c-0.2,0.2-0.3,0.3-0.5,0.4c-1.6,1.5-3.5,2.6-5.5,3.5c-0.2,0.1-0.4,0.2-0.6,0.3c-2,0.8-4.1,1.3-6.3,1.4
			c-0.2,0-0.4,0-0.6,0c-1.1,0-2.3,0-3.5-0.2c-1-0.1-2-0.3-3-0.6c-0.2-0.1-0.4-0.1-0.6-0.2c-2.1-0.7-4-1.7-5.8-3
			c-0.2-0.1-0.3-0.3-0.5-0.4c-1.7-1.3-3.2-3-4.4-4.8c-0.1-0.2-0.2-0.4-0.4-0.5c-1.2-1.8-2-3.8-2.5-6c-0.1-0.2-0.1-0.4-0.1-0.6
			c-0.4-2.1-0.6-4.2-0.3-6.5c0-0.2,0-0.4,0.1-0.6c0,0,0,0,0,0c0.3-2.3,1-4.5,2.1-6.5c0.1-0.2,0.2-0.4,0.3-0.6c0.8-1.5,1.8-2.9,3-4.1
			c0-0.4,0-0.7,0-1.1c0.2-1.5,1.3-2.8,2.8-3.3c1-0.3,2-0.3,2.9,0.1c0.4-0.2,0.9-0.4,1.3-0.6c0.2-0.1,0.4-0.2,0.6-0.2
			c2-0.8,4.1-1.2,6.3-1.4c0.2,0,0.4,0,0.6,0c1.1,0,2.2,0,3.3,0.2c1.1,0.2,2.1,0.4,3.1,0.7c0.2,0.1,0.4,0.1,0.6,0.2
			c2.1,0.7,4,1.7,5.7,3c0.2,0.1,0.4,0.3,0.5,0.4c1.7,1.4,3.2,3,4.4,4.8c0.1,0.2,0.2,0.4,0.4,0.5c1.1,1.8,2,3.9,2.5,6
			c0,0.2,0.1,0.4,0.1,0.6c0.4,2.1,0.5,4.3,0.3,6.5c0,0.2,0,0.3-0.1,0.5c0,0.1,0,0.1,0,0.2c-0.3,2.2-1,4.3-1.9,6.2
			C-1209.5,2845.7-1209.6,2845.9-1209.7,2846.1z M-1229.1,2810.6l0.1,2.5c-2.5,0.1-4.9,0.7-7.2,1.5l-0.9-2.4
			C-1234.6,2811.3-1232,2810.7-1229.1,2810.6C-1229.2,2810.6-1229.2,2810.6-1229.1,2810.6z M-1226.1,2862.2l-0.2-2.5
			c2.5-0.2,4.9-0.7,7.2-1.6l0.9,2.4C-1220.7,2861.4-1223.3,2862-1226.1,2862.2C-1226.1,2862.1-1226.1,2862.2-1226.1,2862.2z
			 M-1212.3,2815.7l-1.5,2c-1.9-1.5-4.1-2.6-6.5-3.4l0.8-2.4C-1216.9,2812.8-1214.5,2814-1212.3,2815.7
			C-1212.4,2815.6-1212.3,2815.7-1212.3,2815.7z"/>
		<path class="st0" d="M-1219.6,2837.1c0.1-0.7,0-1.3-0.1-2c-0.2-1.2-0.7-2.4-1.5-3.5c-1.2-1.6-3-2.7-4.9-3c-0.1,0-0.2,0-0.3,0
			c-0.6-0.1-1.2-0.1-1.7-0.1c-0.5,0-1.1,0.1-1.6,0.3l-8-8.1c-0.9-0.9-2.3-0.2-2.4,0.8c0,0.3,0,0.6,0.2,0.9l5.6,10
			c-0.3,0.5-0.5,1-0.7,1.5c-0.2,0.7-0.3,1.4-0.4,2.1c-0.1,1.7,0.4,3.5,1.6,5c0.7,0.9,1.5,1.6,2.4,2.1c0.6,0.4,1.3,0.6,2,0.8
			c0.5,0.1,1.1,0.2,1.7,0.2l1.6,2.8c0.8,1.4,2.6,1.7,3.8,0.8l4.2-3.2c0.6-0.4,0.9-1,1-1.7c0.1-0.8-0.1-1.6-0.7-2.2l-2.1-2.1
			c0.1-0.4,0.2-0.8,0.3-1.2C-1219.7,2837.4-1219.6,2837.2-1219.6,2837.1z M-1225.4,2839.1c-1.5,1.1-3.7,0.8-4.8-0.7
			c-0.6-0.7-0.8-1.7-0.7-2.5c0.1-0.9,0.6-1.7,1.3-2.3c0.7-0.6,1.6-0.8,2.5-0.7c0.9,0.1,1.7,0.6,2.3,1.3
			C-1223.6,2835.9-1223.9,2838-1225.4,2839.1z"/>
	</g>
	<g>
		<path class="st0" d="M-1145.7,2821.4h-28.5v-12.6h28.5V2821.4z M-1117.3,2823.3c0,7.9-1,14.7-3.1,20.3c-2.5,6.8-6.6,12-12.2,15.6
			c-6.4,4.1-14.8,6.2-25.3,6.2h-16.4v-14.1h18.1c9.5,0,16.2-2.7,20-8.1c3.1-4.4,4.7-11.2,4.7-20.3v-2.6h14.1V2823.3z
			 M-1145.7,2838.3h-28.5v-12.6h28.5V2838.3z M-1125.5,2817.5h-6.7v-11.1h6.7V2817.5z M-1115.9,2817.5h-6.9v-11.1h6.9V2817.5z"/>
		<path class="st0" d="M-1065.9,2865h-44.1v-11.3h31.8v-4.9h-29.2v-11.3h29.2v-5h-31.8v-11.4h44.1V2865z"/>
		<path class="st0" d="M-1002.5,2829.9c0,12.4-4,21.5-11.9,27.5c-7.2,5.5-17.7,8.2-31.4,8.2h-11.1v-13.9h11.5
			c5.7,0,10.3-0.5,13.9-1.4c4.6-1.2,8.1-3.3,10.5-6.2c2.8-3.4,4.3-8.2,4.3-14.1v-6.9h-42.6v-14h40.5v10.8h16.2V2829.9z
			 M-1009.2,2817.4h-6.9v-11.1h6.9V2817.4z M-999.7,2817.4h-6.8v-11.1h6.8V2817.4z"/>
		<path class="st0" d="M-970.8,2807.6v9.8l-0.7,0.9h12.8v-1.6h-10.6v-8.2h10.6v-1.6h11.7v1.6h11.7v9.8h1.4v8.2h-1.4v9.8h-11.7v1.5
			h11.7v7.6h-11.7v1.3h13.2v7.5h-13.2v1.5h13.2v10.1H-970c-5,0-9.3-1.3-13-4c-2.8,2.1-6.3,3.7-10.3,4.6v-13.3
			c0.8-0.2,1.3-0.3,1.4-0.4c0.4-0.1,0.9-0.3,1.4-0.5c-0.9-1.9-1.6-3.8-2.2-5.9c-0.6-2.1-0.9-4.1-0.9-6.2h9.2c0,0.8,0.1,1.6,0.2,2.4
			c0.1,0.7,0.3,1.5,0.6,2.4c0.5-1,0.9-2.2,1.1-3.3c0.3-1.2,0.4-2.4,0.4-3.8h-9.6v-10.1l8-9.8h-9.7v-10.2H-970.8z M-978.4,2827.7h7.5
			v10c0,2.9-0.4,5.7-1.3,8.4c-0.8,2.7-2,5.3-3.6,7.8c2.5,1.1,5.6,1.7,9.1,1.7h8.1v-1.5H-972v-7.5h13.4v-1.3h-10.6v-7.6h10.6v-1.5
			h-10.6v-8.2h10.6v-1.5H-972v-7.5L-978.4,2827.7z M-948.7,2819.1h3.7v-2.4h-3.7V2819.1z M-948.7,2828h3.7v-2.4h-3.7V2828z"/>
		<path class="st0" d="M-900.6,2816.8v10.4h-25.7v-10.4H-900.6z M-901.5,2807.6v7.8h-24v-7.8H-901.5z M-901.5,2828.6v7.7h-24v-7.7
			H-901.5z M-901.5,2837.8v7.9h-24v-7.9H-901.5z M-901.5,2847.1v18.7h-24v-18.7H-901.5z M-915.1,2857.9h3.9v-2.7h-3.9V2857.9z
			 M-870.9,2807.6v13c0.2,0.3,0.4,0.4,0.5,0.4h1.5c0.7,0,1.4-0.2,2.2-0.7v11.8c-0.7,0.3-1.3,0.4-2,0.5c-0.7,0.1-1.3,0.1-2,0.1h-4.6
			c-2.3,0-4-0.7-5.3-2.1c-1.3-1.4-1.9-3.2-1.9-5.5v-7.1h-2.9c0,4.7-1.1,8.3-3.2,10.8c-2.2,2.5-5.7,4.2-10.5,5v-13.6
			c0.7-0.1,1.2-0.5,1.6-1c0.4-0.5,0.6-1.1,0.6-1.8v-10H-870.9z M-868.2,2834.3v10c-0.4,1.7-1.1,3.4-1.9,5.1
			c-0.8,1.7-1.8,3.4-3.1,4.9c2,0.3,4.1,0.4,6.5,0.4v11.6c-3.4,0-6.5-0.3-9.3-0.9c-2.9-0.6-5.6-1.5-8.2-2.8c-2.4,1.1-4.7,1.9-6.9,2.6
			c-2.7,0.7-5.4,1.1-8.1,1.1v-12.1l3.9-0.5c-0.7-1-1.4-2.1-2.1-3.3c-0.7-1.2-1.2-2.5-1.7-3.7h12.5c0.5,1.1,1.1,2,1.8,2.7
			c0.7-0.6,1.5-1.3,2.2-2.1c0.7-0.8,1.3-1.7,1.8-2.6h-18.4v-10.6H-868.2z"/>
	</g>
</g>
</svg>
