<?xml version="1.0" encoding="utf-8"?>
<!-- Generator: Adobe Illustrator 19.1.0, SVG Export Plug-In . SVG Version: 6.00 Build 0)  -->
<svg version="1.1" id="レイヤー_1" xmlns="http://www.w3.org/2000/svg" xmlns:xlink="http://www.w3.org/1999/xlink" x="0px"
	 y="0px" viewBox="0 0 425.2 68" style="enable-background:new 0 0 425.2 68;" xml:space="preserve">
<style type="text/css">
	.st0{fill:#FFFFFF;}
</style>
<g>
	<g>
		<path class="st0" d="M116.5,2v3.4h7.8v10H111V22h13v8.1l3.7-1v-8.8h-4.7c1.5-2.9,2.7-5.9,3.6-9c0.9-3.2,1.3-6.2,1.3-9.2h9.5
			l-0.1,3.1h24v9.4h-26c-0.3,1.3-0.7,2.3-1,3.2c-0.3,0.9-0.8,1.7-1.3,2.6h3.4v6.4l3.7-1v-7.9h8v5.6l6.8-2h4.9v23.2
			c0,2.3-0.8,4.1-2.5,5.2c-1.4,0.9-3.2,1.4-5.4,1.4h-2.4v-8.1h1.3c0.6,0,0.8-0.4,0.8-1.2V31.3l-3.6,1v19.8h-8V34.6l-3.7,1v17.6
			c0,0.7,0.2,1.3,0.5,1.7c0.3,0.4,0.9,0.6,1.7,0.6h13.2c2.1,0,3.9-0.1,5.2-0.4c1.3-0.3,2.7-0.8,4.1-1.6v9.1c-0.9,0.6-2.1,1-3.6,1.2
			c-1.5,0.2-3.3,0.3-5.5,0.3H136c-2.7,0-4.7-0.8-6.2-2.3c-1.4-1.5-2.1-3.4-2.1-5.7v-18l-3.7,1.1v16.6c0,2.6-0.8,4.8-2.4,6.5
			c-1.6,1.7-3.8,2.5-6.5,2.5h-6.2v-9.5h4c1.4,0,2.1-0.7,2.1-2v-22h-4v2.3c0,7.1-1,13.3-2.9,18.3c-2.1,5.7-5.5,10-10.1,12.9V50.7
			c1.3-1.3,2.2-3.3,2.8-6.1c0.6-2.8,0.9-6.5,0.9-11.1V15.4H98v-10h7.9V2H116.5z"/>
		<path class="st0" d="M227.9,3.7v10.7h-24.1v38.4h25.8v10.5h-63.1V52.8h25.8V14.4h-24.2V3.7H227.9z"/>
		<path class="st0" d="M296.2,55l-19.1-9.3v-8.1c-1.6,1.3-3.5,2.7-5.8,4.1v22.1h-11.9V47.9c-3.5,1.5-7.3,2.8-11.5,3.9
			c-4.2,1.1-8.7,2.1-13.5,2.9V42.4c10.4-1.3,19.9-4.2,28.4-8.8c8.1-4.4,13.7-9.3,16.8-14.8h-43.5v-12h23V2.1h11.9v4.7H294v7.6
			c-0.4,2.6-1.6,5.5-3.6,8.7c-2.4,3.9-5.6,7.8-9.7,11.5l15.5,7.4V55z"/>
		<path class="st0" d="M313,42.9h-10.2l-2.3-25.3h9.9L313,42.9z M349.7,29.4c0,11.3-2.5,19.6-7.4,25.1c-5.5,6-14.5,9-27.1,9h-12.9
			V53.2h12.9c9.2,0,15.6-2,19.2-5.9c3.2-3.6,4.9-9.6,4.9-18V16.9h10.4V29.4z M329.5,42.9h-10.1L317,17.7h10L329.5,42.9z"/>
		<path class="st0" d="M411.5,42.2c-8.1,0-15.9-0.7-23.4-2.1c-7.5-1.4-13.7-3.2-18.6-5.5V64h-11.9V2.2h11.9v19.6
			c4.9,2.6,11.6,4.7,20,6.3c7.6,1.3,14.9,2,21.9,2V42.2z"/>
	</g>
	<g>
		<path class="st0" d="M15,29c-2.5,17.7,10,34.2,27.7,36.6c17.7,2.5,34.2-10,36.6-27.7c2.5-17.7-10-34.2-27.7-36.6
			C33.8-1.2,17.4,11.3,15,29z M54.5,9.1l-0.7,2.4c-1.1-0.3-2.3-0.6-3.5-0.8c-1.2-0.2-2.5-0.2-3.7-0.2L46.6,8c1.3,0,2.7,0,4.1,0.2
			C51.9,8.4,53.2,8.7,54.5,9.1C54.5,9.1,54.5,9.1,54.5,9.1z M68.4,19.5l-2.1,1.4c-1.3-2-3-3.8-4.9-5.4l1.6-2
			C65.1,15.2,66.9,17.2,68.4,19.5C68.4,19.4,68.4,19.5,68.4,19.5z M71.9,27.6l-2.5,0.6c-0.6-2.4-1.5-4.6-2.8-6.7l2.1-1.3
			C70.2,22.4,71.3,24.9,71.9,27.6C71.9,27.5,71.9,27.6,71.9,27.6z M72.4,36.4l-2.5-0.3c0.3-2.5,0.2-4.9-0.3-7.2l2.5-0.5
			C72.6,30.9,72.8,33.6,72.4,36.4C72.4,36.3,72.4,36.4,72.4,36.4z M37.2,10l1,2.3c-2.2,1-4.3,2.3-6.1,3.8l-1.6-1.9
			C32.4,12.5,34.6,11.1,37.2,10C37.1,10,37.1,10,37.2,10z M29.8,14.8l1.7,1.8l0,0c-1.8,1.6-3.3,3.6-4.5,5.7l-2.2-1.2
			C26.1,18.8,27.8,16.7,29.8,14.8C29.7,14.9,29.7,14.8,29.8,14.8z M24.4,21.8l2.2,1.2c-1.1,2.2-1.9,4.7-2.3,7.3l-2.5-0.3
			c0.4-2.9,1.3-5.5,2.5-8C24.4,21.9,24.4,21.9,24.4,21.8z M33,51.5l-1.5,2c-2.1-1.7-4-3.7-5.5-5.9l2.1-1.4C29.4,48.2,31,50,33,51.5z
			 M27.6,45.6l-2.1,1.3c-1.4-2.3-2.5-4.8-3.1-7.4l2.4-0.6C25.4,41.3,26.4,43.6,27.6,45.6z M24.6,38.2l-2.5,0.5
			c-0.6-2.6-0.7-5.3-0.4-8l2.5,0.3C24,33.5,24.2,35.9,24.6,38.2z M32,54l1.5-2c1.9,1.4,4.1,2.5,6.4,3.3l-0.8,2.4
			C36.6,56.8,34.2,55.6,32,54z M40,57.9l0.7-2.4c1.1,0.3,2.2,0.6,3.3,0.7c1.3,0.2,2.6,0.2,3.9,0.2l0.1,2.5c-1.4,0.1-2.9,0-4.3-0.2
			C42.4,58.5,41.1,58.3,40,57.9z M57.3,56.8l-1-2.3c2.2-1,4.3-2.3,6.1-3.9l1.7,1.9C62.1,54.2,59.8,55.7,57.3,56.8
			C57.4,56.8,57.3,56.8,57.3,56.8z M64.7,51.9l-1.7-1.8c1.8-1.6,3.2-3.6,4.4-5.7l2.2,1.2C68.3,47.9,66.6,50.1,64.7,51.9
			C64.7,51.9,64.7,51.9,64.7,51.9z M69.9,44.8l-2.2-1.1c1.1-2.1,1.8-4.4,2.2-6.9l2.5,0.4C71.9,39.9,71.1,42.4,69.9,44.8
			C69.9,44.8,69.9,44.8,69.9,44.8z M65,43.1c-1,1.9-2.3,3.6-3.9,5.1c-0.2,0.2-0.3,0.3-0.5,0.4c-1.6,1.4-3.4,2.6-5.4,3.5
			c-0.2,0.1-0.4,0.2-0.6,0.3c-2,0.8-4.1,1.3-6.2,1.4c-0.2,0-0.4,0-0.6,0c-1.1,0-2.3,0-3.4-0.2c-1-0.1-2-0.3-2.9-0.6
			c-0.2-0.1-0.4-0.1-0.6-0.2c-2.1-0.7-4-1.7-5.7-2.9c-0.2-0.1-0.3-0.3-0.5-0.4c-1.7-1.3-3.2-2.9-4.4-4.7c-0.1-0.2-0.2-0.4-0.4-0.5
			c-1.1-1.8-2-3.8-2.5-5.9c-0.1-0.2-0.1-0.4-0.1-0.6c-0.4-2-0.6-4.2-0.3-6.4c0-0.2,0-0.4,0.1-0.6c0,0,0,0,0,0c0.3-2.3,1-4.5,2-6.4
			c0.1-0.2,0.2-0.4,0.3-0.6c0.8-1.5,1.8-2.8,3-4c0-0.4,0-0.7,0-1.1c0.2-1.5,1.3-2.8,2.8-3.3c1-0.3,2-0.3,2.8,0.1
			c0.4-0.2,0.9-0.4,1.3-0.6c0.2-0.1,0.4-0.2,0.6-0.2c2-0.8,4.1-1.2,6.2-1.3c0.2,0,0.4,0,0.6,0c1.1,0,2.2,0,3.2,0.2
			C51,13.5,52,13.7,53,14c0.2,0.1,0.4,0.1,0.6,0.2c2.1,0.7,4,1.7,5.6,3c0.2,0.1,0.3,0.3,0.5,0.4c1.7,1.3,3.1,2.9,4.3,4.7
			c0.1,0.2,0.2,0.4,0.4,0.5c1.1,1.8,1.9,3.8,2.4,5.9c0,0.2,0.1,0.4,0.1,0.6c0.4,2.1,0.5,4.2,0.3,6.4c0,0.2,0,0.3-0.1,0.5
			c0,0.1,0,0.1,0,0.2c-0.3,2.2-1,4.2-1.9,6.1C65.2,42.7,65.1,42.9,65,43.1z M45.8,8l0.1,2.5c-2.5,0.1-4.8,0.6-7.1,1.5l-0.9-2.3
			C40.4,8.8,43,8.2,45.8,8C45.7,8,45.7,8,45.8,8z M48.7,58.9l-0.2-2.5c2.5-0.2,4.8-0.7,7.1-1.6l0.9,2.3
			C54.1,58.1,51.5,58.7,48.7,58.9C48.8,58.9,48.8,58.9,48.7,58.9z M62.4,13.1l-1.5,2c-1.9-1.4-4-2.6-6.4-3.4l0.8-2.4
			C57.8,10.2,60.2,11.4,62.4,13.1C62.3,13,62.3,13,62.4,13.1z"/>
		<path class="st0" d="M55.1,34.2c0.1-0.6,0-1.3-0.1-1.9c-0.2-1.2-0.7-2.4-1.5-3.4c-1.2-1.6-2.9-2.6-4.9-3c-0.1,0-0.2,0-0.2,0
			c-0.6-0.1-1.1-0.1-1.7,0c-0.5,0-1.1,0.1-1.6,0.3l-7.9-7.9c-0.9-0.9-2.3-0.2-2.4,0.8c0,0.3,0,0.6,0.2,0.9l5.6,9.9
			c-0.3,0.5-0.5,1-0.7,1.5c-0.2,0.7-0.3,1.4-0.3,2.1c-0.1,1.7,0.4,3.5,1.6,4.9c0.7,0.9,1.5,1.6,2.4,2.1c0.6,0.4,1.3,0.6,1.9,0.8
			c0.5,0.1,1.1,0.2,1.6,0.2l1.5,2.7c0.8,1.3,2.5,1.7,3.8,0.8l4.1-3.1c0.6-0.4,0.9-1,1-1.7c0.1-0.8-0.1-1.6-0.7-2.2l-2.1-2.1
			c0.1-0.4,0.2-0.8,0.3-1.2C55.1,34.4,55.1,34.3,55.1,34.2z M49.5,36.2c-1.5,1.1-3.6,0.8-4.7-0.7c-0.6-0.7-0.8-1.6-0.6-2.5
			c0.1-0.9,0.6-1.7,1.3-2.2c0.7-0.5,1.6-0.8,2.5-0.7c0.9,0.1,1.7,0.6,2.2,1.3C51.2,33,50.9,35.1,49.5,36.2z"/>
	</g>
</g>
</svg>
